{"title":"Did You Hear About the Morgans.DVDRip.XViD.AC3.{6}.Optional.Sub","uid":5496737,"size":741754886,"categoryP":"video","categoryS":"movies","magnet":"?xt=urn:btih:c332f5d148a3138a27255d7d8f3c0d88fb240b95&amp;dn=Did+You+Hear+About+the+Morgans.DVDRip.XViD.AC3.%7B6%7D.Optional.Sub&amp;tr=udp%3A%2F%2Ftracker.openbittorrent.com%3A80&amp;tr=udp%3A%2F%2Fopen.demonii.com%3A1337&amp;tr=udp%3A%2F%2Ftracker.coppersurfer.tk%3A6969&amp;tr=udp%3A%2F%2Fexodus.desync.com%3A6969","seeders":1,"leechers":0,"uploader":"Zen_Bud","files":-1,"time":1271319840,"description":"Optional Sub in .srt : Greek, Swe, Brazillian/Portuguese, Croatian, Dutch, French\n\n\n\nGeneral\nComplete name                    : Did You Hear About the Morgans.avi\nFormat                           : AVI\nFormat/Info                      : Audio Video Interleave\nFile size                        : 707 MiB\nDuration                         : 1h 43mn\nOverall bit rate                 : 955 Kbps\n\nVideo\nID                               : 0\nFormat                           : MPEG-4 Visual\nCodec ID/Hint                    : XviD\nDuration                         : 1h 43mn\nBit rate                         : 496 Kbps\nWidth                            : 720 pixels\nHeight                           : 362 pixels\nDisplay aspect ratio             : 2.35:1\nResolution                       : 8 bits\nColorimetry                      : 4:2:0\nScan type                        : Progressive\nBits/(Pixel*Frame)               : 0.076\nStream size                      : 367 MiB (52%)\nWriting library                  : XviD 1.1.2 (UTC 2006-11-01)\n\nAudio\nID                               : 1\nFormat                           : AC-3\nDuration                         : 1h 43mn\nBit rate mode                    : Constant\nBit rate                         : 448 Kbps\nChannel(s)                       : 6 channels\nChannel positions                : Front: L C R, Side: L R, LFE\nSampling rate                    : 48.0 KHz\nStream size                      : 332 MiB (47%)\n\n\nGeneral\nComplete name                    : Did You Hear About the Morgans .Greek.srt\nFile size                        : 149 KiB\n\nGeneral\nComplete name                    : Did You Hear About the Morgans Swe.srt\nFile size                        : 90.9 KiB\n\nGeneral\nComplete name       : Did You Hear About The Morgans.Brazillian/Portuguese.srt\nFile size                        : 113 KiB\n\nGeneral\nComplete name                    : Did You Hear About The Morgans.Croatian.srt\nFile size                        : 101 KiB\n\nGeneral\nComplete name                    : Did You Hear About the Morgans.Dutch.srt\nFile size                        : 104 KiB\n\nGeneral\nComplete name                    : Did You Hear About The Morgans.French.srt\nFile size                        : 101 KiB\n\n","torrent":{"xt":"urn:btih:c332f5d148a3138a27255d7d8f3c0d88fb240b95","amp;dn":"Did+You+Hear+About+the+Morgans.DVDRip.XViD.AC3.%7B6%7D.Optional.Sub","amp;tr":["udp%3A%2F%2Ftracker.openbittorrent.com%3A80","udp%3A%2F%2Fopen.demonii.com%3A1337","udp%3A%2F%2Ftracker.coppersurfer.tk%3A6969","udp%3A%2F%2Fexodus.desync.com%3A6969"],"infoHash":"c332f5d148a3138a27255d7d8f3c0d88fb240b95","infoHashBuffer":{"type":"Buffer","data":[195,50,245,209,72,163,19,138,39,37,93,125,143,60,13,136,251,36,11,149]},"announce":[],"urlList":[]}}